<?xml version="1.0" encoding="utf-8"?>
<!-- Generator: Adobe Illustrator 21.0.0, SVG Export Plug-In . SVG Version: 6.00 Build 0)  -->
<svg version="1.1" id="图层_1" xmlns="http://www.w3.org/2000/svg" xmlns:xlink="http://www.w3.org/1999/xlink" x="0px" y="0px"
	 viewBox="0 0 60 60" style="enable-background:new 0 0 60 60;" xml:space="preserve">
<style type="text/css">
	.st0{fill:#FFFFFF;}
</style>
<title>connect</title>
<g id="FULL_COLOR_ICON">
	<path class="st0" d="M30,1.4c-16.5,0-30,11-30,24.3c0,12,10.7,22.1,25.1,24c1,0.2,2.3,0.6,2.6,1.5c0.2,0.9,0.3,1.8,0.1,2.7
		l-0.4,2.5c-0.1,0.8-0.6,3,2.6,1.6S47.3,48,53.5,40.7c4.4-4.8,6.4-9.6,6.4-15h0C60,12.3,46.5,1.4,30,1.4z M19.4,32.9
		c0,0.3-0.3,0.6-0.6,0.6h-8.4c-0.1,0-0.3-0.1-0.4-0.2c-0.1-0.1-0.2-0.2-0.2-0.4V19.9c0-0.3,0.3-0.6,0.6-0.6h2.1
		c0.3,0,0.6,0.3,0.6,0.6v10.4h5.7l0-0.1c0.3,0,0.6,0.3,0.6,0.6V32.9z M24.5,32.9c0,0.3-0.3,0.6-0.6,0.6h-2.1c-0.3,0-0.6-0.3-0.6-0.6
		V19.9c0-0.3,0.3-0.6,0.6-0.6h2.1c0.3,0,0.6,0.3,0.6,0.6V32.9z M39,32.8C39,32.8,39,32.8,39,32.8c0,0.3-0.3,0.6-0.6,0.6H36
		c-0.1,0-0.1-0.1-0.2-0.1l-6-8.1v8c0,0.3-0.3,0.6-0.6,0.6h-2.1c-0.3,0-0.6-0.3-0.6-0.6V20.1c0-0.3,0.3-0.6,0.6-0.6h2.6l6,8.1v-7.8
		c0-0.3,0.3-0.6,0.6-0.6h2.1c0.3,0,0.6,0.3,0.6,0.6V32.8z M50,24.8c0.3,0,0.6,0.3,0.6,0.6v2.1c0,0,0,0,0,0c0,0.3-0.3,0.6-0.6,0.6
		h-5.7v2.2H50c0.3,0,0.6,0.3,0.6,0.6v2.1c0,0.3-0.3,0.6-0.6,0.6h-8.4c-0.1,0-0.3-0.1-0.4-0.2c-0.1-0.1-0.2-0.2-0.2-0.4V19.8
		c0-0.1,0.1-0.3,0.2-0.4c0.1-0.1,0.3-0.2,0.4-0.2H50c0.3,0,0.6,0.3,0.6,0.6v2.1c0,0,0,0,0,0c0,0.3-0.3,0.6-0.6,0.6h-5.7v2.2H50z"/>
</g>
</svg>
